<svg xmlns="http://www.w3.org/2000/svg" viewBox="0 0 800 340">
  <defs>
    <linearGradient id="bg" x1="0" y1="0" x2="1" y2="1">
      <stop offset="0%" stop-color="#f8f7fc"/>
      <stop offset="100%" stop-color="#f0eeff"/>
    </linearGradient>
    <linearGradient id="userBubble" x1="0" y1="0" x2="1" y2="1">
      <stop offset="0%" stop-color="#6366f1"/>
      <stop offset="100%" stop-color="#7c3aed"/>
    </linearGradient>
  </defs>

  <rect width="800" height="340" fill="url(#bg)" rx="12"/>

  <!-- ===== Step 1 ===== -->
  <rect x="20" y="20" width="235" height="300" rx="12" fill="#fff" stroke="#e0dcec" stroke-width="1"/>

  <rect x="30" y="32" width="160" height="28" rx="12" fill="url(#userBubble)"/>
  <text x="42" y="50" font-family="sans-serif" font-size="11" fill="#fff">How do I use React hooks?</text>

  <rect x="30" y="70" width="215" height="12" rx="6" fill="#e0dcec" opacity="0.4"/>
  <rect x="30" y="88" width="200" height="8" rx="4" fill="#e0dcec" opacity="0.5"/>
  <rect x="30" y="102" width="205" height="8" rx="4" fill="#e0dcec" opacity="0.5"/>
  <rect x="30" y="116" width="180" height="8" rx="4" fill="#e0dcec" opacity="0.4"/>

  <rect x="35" y="133" width="205" height="60" rx="6" fill="#0f0d1a"/>
  <text x="45" y="150" font-family="monospace" font-size="9" fill="#a78bfa">const [count, setCount] =</text>
  <text x="45" y="165" font-family="monospace" font-size="9" fill="#a78bfa">  useState(0);</text>
  <text x="45" y="180" font-family="monospace" font-size="9" fill="#c084fc">useEffect(() =&gt; {</text>
  <text x="52" y="195" font-family="monospace" font-size="9" fill="#e0dcec">document.title = count;</text>
  <text x="45" y="210" font-family="monospace" font-size="9" fill="#c084fc">}, [count]);</text>
  <rect x="35" y="218" width="50" height="16" rx="4" fill="#ede9fe"/>
  <text x="60" y="229" text-anchor="middle" font-family="sans-serif" font-size="8" fill="#7c3aed">javascript</text>

  <rect x="30" y="244" width="195" height="28" rx="6" fill="#6366f1" opacity="0.1"/>
  <rect x="30" y="244" width="195" height="28" rx="6" fill="none" stroke="#6366f1" stroke-width="1.5" stroke-dasharray="4,3"/>
  <text x="127" y="262" text-anchor="middle" font-family="sans-serif" font-size="11" fill="#6366f1" font-weight="bold">Selected: "useEffect..."</text>

  <rect x="40" y="284" width="195" height="26" rx="7" fill="#f0eeff"/>
  <text x="137" y="301" text-anchor="middle" font-family="sans-serif" font-size="12" fill="#6366f1" font-weight="bold">1. Select text</text>

  <!-- Arrow -->
  <line x1="258" y1="170" x2="288" y2="170" stroke="#a855f7" stroke-width="2" stroke-dasharray="6,4"/>
  <polygon points="288,165 298,170 288,175" fill="#a855f7"/>

  <!-- ===== Step 2 ===== -->
  <rect x="302" y="20" width="235" height="300" rx="12" fill="#fff" stroke="#e0dcec" stroke-width="1"/>

  <rect x="320" y="40" width="200" height="200" rx="10" fill="#fff" stroke="#d4d0e4" stroke-width="1"/>

  <text x="340" y="68" font-family="sans-serif" font-size="13" fill="#1f1b2e" font-weight="bold">Actions</text>
  <rect x="335" y="78" width="170" height="1" fill="#e0dcec"/>

  <rect x="330" y="86" width="180" height="28" rx="6" fill="#f0eeff"/>
  <text x="345" y="104" font-family="sans-serif" font-size="11" fill="#6366f1">Rename</text>

  <rect x="330" y="118" width="180" height="28" rx="6" fill="#ede9fe"/>
  <text x="345" y="136" font-family="sans-serif" font-size="11" fill="#7c3aed" font-weight="bold">New sub-dialogue</text>

  <rect x="330" y="150" width="180" height="1" fill="#e0dcec"/>

  <rect x="330" y="156" width="180" height="28" rx="6" fill="#f0eeff"/>
  <text x="345" y="174" font-family="sans-serif" font-size="11" fill="#6366f1">Export</text>

  <rect x="330" y="188" width="180" height="28" rx="6" fill="#f0eeff"/>
  <text x="345" y="206" font-family="sans-serif" font-size="11" fill="#6366f1">Add tag</text>

  <rect x="330" y="220" width="180" height="28" rx="6" fill="#fee2e2"/>
  <text x="345" y="238" font-family="sans-serif" font-size="11" fill="#ef4444">Delete</text>

  <rect x="322" y="284" width="195" height="26" rx="7" fill="#f0eeff"/>
  <text x="419" y="301" text-anchor="middle" font-family="sans-serif" font-size="12" fill="#6366f1" font-weight="bold">2. Right-click / New</text>

  <!-- Arrow -->
  <line x1="540" y1="170" x2="570" y2="170" stroke="#a855f7" stroke-width="2" stroke-dasharray="6,4"/>
  <polygon points="570,165 580,170 570,175" fill="#a855f7"/>

  <!-- ===== Step 3 ===== -->
  <rect x="584" y="20" width="196" height="300" rx="12" fill="#fff" stroke="#a855f7" stroke-width="1.5"/>

  <rect x="584" y="20" width="196" height="30" rx="12" fill="#a855f7"/>
  <rect x="584" y="40" width="196" height="10" fill="#a855f7"/>
  <circle cx="604" cy="35" r="6" fill="#fff" opacity="0.3"/>
  <text x="620" y="39" font-family="sans-serif" font-size="10" fill="#fff" font-weight="bold">Sub: useEffect</text>

  <rect x="615" y="55" width="150" height="24" rx="10" fill="url(#userBubble)" opacity="0.85"/>
  <text x="625" y="71" font-family="sans-serif" font-size="10" fill="#fff">Why is this needed?</text>

  <rect x="594" y="87" width="176" height="10" rx="5" fill="#e0dcec" opacity="0.4"/>
  <rect x="594" y="102" width="160" height="8" rx="4" fill="#e0dcec" opacity="0.5"/>
  <rect x="594" y="115" width="170" height="8" rx="4" fill="#e0dcec" opacity="0.5"/>

  <rect x="599" y="130" width="166" height="52" rx="5" fill="#0f0d1a"/>
  <text x="608" y="145" font-family="monospace" font-size="8.5" fill="#a78bfa">useEffect(() =&gt; {</text>
  <text x="614" y="158" font-family="monospace" font-size="8.5" fill="#e0dcec">fetchData()</text>
  <text x="614" y="171" font-family="monospace" font-size="8.5" fill="#e0dcec">  .then(setData);</text>
  <text x="608" y="184" font-family="monospace" font-size="8.5" fill="#a78bfa">}, []); // runs once</text>

  <rect x="594" y="192" width="120" height="24" rx="6" fill="#ede9fe" stroke="#a855f7" stroke-width="1"/>
  <text x="654" y="208" text-anchor="middle" font-family="sans-serif" font-size="10" fill="#7c3aed" font-weight="bold">Merge back</text>

  <rect x="604" y="284" width="156" height="26" rx="7" fill="#f5f3ff" stroke="#a855f7" stroke-width="0.5"/>
  <text x="682" y="301" text-anchor="middle" font-family="sans-serif" font-size="12" fill="#7c3aed" font-weight="bold">3. Branch &amp; chat</text>
</svg>
